HIERARCHY
ROOT Hips
{
	OFFSET 0.000000 71.427986 0.000000
	CHANNELS 6 Xposition Yposition Zposition Xrotation Yrotation Zrotation
	JOINT Pelvis
	{
		OFFSET 0.000000 0.000000 0.000000
		CHANNELS 3 Xrotation Yrotation Zrotation
		JOINT LeftUpLeg
		{
			OFFSET 6.797100 -2.508499 -1.318700
			CHANNELS 3 Xrotation Yrotation Zrotation
			JOINT LeftLeg
			{
				OFFSET 0.069008 -29.241863 0.690200
				CHANNELS 3 Xrotation Yrotation Zrotation
				JOINT LeftFoot
				{
					OFFSET -0.069008 -29.568123 -0.266800
					CHANNELS 3 Xrotation Yrotation Zrotation
					JOINT LeftToeBase
					{
						OFFSET 3.145500 -8.631000 16.059900
						CHANNELS 3 Xrotation Yrotation Zrotation
						End Site
						{
							OFFSET 0.000000 18.501587 0.000000
						}
					}
				}
			}
			JOINT Left_ShortSleeve
			{
				OFFSET 0.265923 -10.480953 1.153800
				CHANNELS 3 Xrotation Yrotation Zrotation
				End Site
				{
					OFFSET 1.725763 19.823879 0.000000
				}
			}
		}
		JOINT RightUpLeg
		{
			OFFSET -6.797100 -2.508499 -1.318700
			CHANNELS 3 Xrotation Yrotation Zrotation
			JOINT RightLeg
			{
				OFFSET -0.082453 -29.241932 0.688000
				CHANNELS 3 Xrotation Yrotation Zrotation
				JOINT RightFoot
				{
					OFFSET 0.082453 -29.568058 -0.264600
					CHANNELS 3 Xrotation Yrotation Zrotation
					JOINT RightToeBase
					{
						OFFSET -3.115300 -8.682800 16.113400
						CHANNELS 3 Xrotation Yrotation Zrotation
						End Site
						{
							OFFSET 0.000000 18.567114 0.000000
						}
					}
				}
			}
			JOINT Right_ShortSleeve
			{
				OFFSET -0.265923 -10.480953 1.153800
				CHANNELS 3 Xrotation Yrotation Zrotation
				End Site
				{
					OFFSET -1.725766 19.823910 0.000000
				}
			}
		}
	}
	JOINT Spine
	{
		OFFSET 0.000000 13.368103 0.470500
		CHANNELS 3 Xrotation Yrotation Zrotation
		JOINT Spine1
		{
			OFFSET 0.147000 13.837402 0.538800
			CHANNELS 3 Xrotation Yrotation Zrotation
			JOINT Spine2
			{
				OFFSET 0.168000 16.242897 -1.435500
				CHANNELS 3 Xrotation Yrotation Zrotation
				JOINT Neck
				{
					OFFSET 0.217200 18.631500 -1.679100
					CHANNELS 3 Xrotation Yrotation Zrotation
					JOINT Head
					{
						OFFSET 0.000000 6.599396 1.385900
						CHANNELS 3 Xrotation Yrotation Zrotation
						JOINT Hat
						{
							OFFSET -0.532200 27.220596 -10.096100
							CHANNELS 3 Xrotation Yrotation Zrotation
							End Site
							{
								OFFSET 0.000000 22.029861 0.000000
							}
						}
						JOINT HairD
						{
							OFFSET -10.777400 17.437393 -1.325900
							CHANNELS 3 Xrotation Yrotation Zrotation
							JOINT HairD1
							{
								OFFSET -3.290299 -11.051193 1.062200
								CHANNELS 3 Xrotation Yrotation Zrotation
								End Site
								{
									OFFSET 0.000000 11.579437 0.000000
								}
							}
						}
						JOINT HairB
						{
							OFFSET -10.777400 17.437393 1.467900
							CHANNELS 3 Xrotation Yrotation Zrotation
							JOINT HairB1
							{
								OFFSET -1.561200 -12.956299 3.590200
								CHANNELS 3 Xrotation Yrotation Zrotation
								End Site
								{
									OFFSET 0.000000 13.534866 0.000000
								}
							}
						}
						JOINT HairA
						{
							OFFSET 9.713100 17.437393 1.467900
							CHANNELS 3 Xrotation Yrotation Zrotation
							JOINT HairA1
							{
								OFFSET 1.561200 -12.956299 3.590200
								CHANNELS 3 Xrotation Yrotation Zrotation
								End Site
								{
									OFFSET 0.000000 13.534866 0.000000
								}
							}
						}
						JOINT HairC
						{
							OFFSET 9.713100 17.437393 -1.325900
							CHANNELS 3 Xrotation Yrotation Zrotation
							JOINT HairC1
							{
								OFFSET 3.290300 -11.051193 1.062200
								CHANNELS 3 Xrotation Yrotation Zrotation
								End Site
								{
									OFFSET 0.000000 11.579437 0.000000
								}
							}
						}
					}
				}
				JOINT LeftShoulder
				{
					OFFSET 5.101800 15.108002 -2.763700
					CHANNELS 3 Xrotation Yrotation Zrotation
					JOINT LeftArm
					{
						OFFSET 9.825497 2.506317 -1.597400
						CHANNELS 3 Xrotation Yrotation Zrotation
						JOINT LeftForeArm
						{
							OFFSET 21.966244 0.000000 0.000000
							CHANNELS 3 Xrotation Yrotation Zrotation
							JOINT LeftHand
							{
								OFFSET 33.879036 0.000000 0.000000
								CHANNELS 3 Xrotation Yrotation Zrotation
								JOINT LeftHandThumb1
								{
									OFFSET 6.715286 -2.359680 3.363841
									CHANNELS 3 Xrotation Yrotation Zrotation
									JOINT LeftHandThumb2
									{
										OFFSET 2.507072 -1.447464 1.447461
										CHANNELS 3 Xrotation Yrotation Zrotation
										JOINT LeftHandThumb3
										{
											OFFSET 2.898338 -1.673355 1.673357
											CHANNELS 3 Xrotation Yrotation Zrotation
											End Site
											{
												OFFSET -0.295959 3.727692 -0.131651
											}
										}
									}
								}
								JOINT LeftHandIndex1
								{
									OFFSET 14.190811 -0.254547 3.840278
									CHANNELS 3 Xrotation Yrotation Zrotation
									JOINT LeftHandIndex2
									{
										OFFSET 3.551727 0.000000 -0.000000
										CHANNELS 3 Xrotation Yrotation Zrotation
										JOINT LeftHandIndex3
										{
											OFFSET 2.894196 0.000000 0.000000
											CHANNELS 3 Xrotation Yrotation Zrotation
											End Site
											{
												OFFSET -1.000603 2.690872 0.366626
											}
										}
									}
								}
								JOINT LeftHandMiddle1
								{
									OFFSET 13.776489 0.000000 0.000000
									CHANNELS 3 Xrotation Yrotation Zrotation
									JOINT LeftHandMiddle2
									{
										OFFSET 3.438232 0.000000 0.000000
										CHANNELS 3 Xrotation Yrotation Zrotation
										JOINT LeftHandMiddle3
										{
											OFFSET 3.691551 0.000000 0.000000
											CHANNELS 3 Xrotation Yrotation Zrotation
											End Site
											{
												OFFSET -1.082298 3.499527 0.457670
											}
										}
									}
								}
								JOINT LeftHandRing1
								{
									OFFSET 13.966164 -0.268127 -3.067488
									CHANNELS 3 Xrotation Yrotation Zrotation
									JOINT LeftHandRing2
									{
										OFFSET 3.162567 0.000000 0.000000
										CHANNELS 3 Xrotation Yrotation Zrotation
										JOINT LeftHandRing3
										{
											OFFSET 3.324348 0.000000 0.000000
											CHANNELS 3 Xrotation Yrotation Zrotation
											End Site
											{
												OFFSET -0.861900 3.184998 0.405154
											}
										}
									}
								}
								JOINT LeftHandPinky1
								{
									OFFSET 13.131393 -0.168503 -5.746925
									CHANNELS 3 Xrotation Yrotation Zrotation
									JOINT LeftHandPinky2
									{
										OFFSET 2.849182 0.000000 0.000000
										CHANNELS 3 Xrotation Yrotation Zrotation
										JOINT LeftHandPinky3
										{
											OFFSET 2.805038 0.000000 0.000000
											CHANNELS 3 Xrotation Yrotation Zrotation
											End Site
											{
												OFFSET -0.882500 2.642609 0.325652
											}
										}
									}
								}
							}
							JOINT Left_Sleeve
							{
								OFFSET 6.592125 -0.646545 0.805568
								CHANNELS 3 Xrotation Yrotation Zrotation
								End Site
								{
									OFFSET -0.000179 20.275787 -0.000000
								}
							}
						}
					}
				}
				JOINT RightShoulder
				{
					OFFSET -5.731700 15.108002 -2.763700
					CHANNELS 3 Xrotation Yrotation Zrotation
					JOINT RightArm
					{
						OFFSET -9.825497 2.506317 -1.597400
						CHANNELS 3 Xrotation Yrotation Zrotation
						JOINT RightForeArm
						{
							OFFSET -21.966242 0.000000 0.000000
							CHANNELS 3 Xrotation Yrotation Zrotation
							JOINT RightHand
							{
								OFFSET -33.879032 0.000000 0.000000
								CHANNELS 3 Xrotation Yrotation Zrotation
								JOINT RightHandThumb1
								{
									OFFSET -6.715286 -2.359680 3.363841
									CHANNELS 3 Xrotation Yrotation Zrotation
									JOINT RightHandThumb2
									{
										OFFSET -2.507072 -1.447464 1.447461
										CHANNELS 3 Xrotation Yrotation Zrotation
										JOINT RightHandThumb3
										{
											OFFSET -2.898338 -1.673355 1.673357
											CHANNELS 3 Xrotation Yrotation Zrotation
											End Site
											{
												OFFSET 0.295959 3.727692 -0.131651
											}
										}
									}
								}
								JOINT RightHandIndex1
								{
									OFFSET -14.190811 -0.254547 3.840278
									CHANNELS 3 Xrotation Yrotation Zrotation
									JOINT RightHandIndex2
									{
										OFFSET -3.551727 0.000000 -0.000000
										CHANNELS 3 Xrotation Yrotation Zrotation
										JOINT RightHandIndex3
										{
											OFFSET -2.894196 0.000000 0.000000
											CHANNELS 3 Xrotation Yrotation Zrotation
											End Site
											{
												OFFSET 1.000603 2.690872 0.366626
											}
										}
									}
								}
								JOINT RightHandMiddle1
								{
									OFFSET -13.776489 0.000000 0.000000
									CHANNELS 3 Xrotation Yrotation Zrotation
									JOINT RightHandMiddle2
									{
										OFFSET -3.438232 0.000000 0.000000
										CHANNELS 3 Xrotation Yrotation Zrotation
										JOINT RightHandMiddle3
										{
											OFFSET -3.691551 0.000000 0.000000
											CHANNELS 3 Xrotation Yrotation Zrotation
											End Site
											{
												OFFSET 1.082298 3.499527 0.457670
											}
										}
									}
								}
								JOINT RightHandRing1
								{
									OFFSET -13.966164 -0.268127 -3.067488
									CHANNELS 3 Xrotation Yrotation Zrotation
									JOINT RightHandRing2
									{
										OFFSET -3.162567 0.000000 0.000000
										CHANNELS 3 Xrotation Yrotation Zrotation
										JOINT RightHandRing3
										{
											OFFSET -3.324348 0.000000 0.000000
											CHANNELS 3 Xrotation Yrotation Zrotation
											End Site
											{
												OFFSET 0.861900 3.184998 0.405154
											}
										}
									}
								}
								JOINT RightHandPinky1
								{
									OFFSET -13.131393 -0.168503 -5.746925
									CHANNELS 3 Xrotation Yrotation Zrotation
									JOINT RightHandPinky2
									{
										OFFSET -2.849182 0.000000 0.000000
										CHANNELS 3 Xrotation Yrotation Zrotation
										JOINT RightHandPinky3
										{
											OFFSET -2.805038 0.000000 0.000000
											CHANNELS 3 Xrotation Yrotation Zrotation
											End Site
											{
												OFFSET 0.882500 2.642609 0.325652
											}
										}
									}
								}
							}
							JOINT Right_Sleeve
							{
								OFFSET -6.592125 -0.646545 0.805568
								CHANNELS 3 Xrotation Yrotation Zrotation
								End Site
								{
									OFFSET 0.000179 20.275787 -0.000000
								}
							}
						}
					}
				}
				JOINT Bind_Right_JacketString
				{
					OFFSET -3.534800 11.969597 7.200700
					CHANNELS 3 Xrotation Yrotation Zrotation
					JOINT Bind_Right_JacketString1
					{
						OFFSET -0.319900 -6.102600 2.794100
						CHANNELS 3 Xrotation Yrotation Zrotation
						End Site
						{
							OFFSET 0.000000 6.719452 0.000000
						}
					}
				}
				JOINT Bind_Left_JacketString
				{
					OFFSET 2.904800 11.969597 7.200700
					CHANNELS 3 Xrotation Yrotation Zrotation
					JOINT Bind_Left_JacketString1
					{
						OFFSET 0.364800 -5.904503 3.186800
						CHANNELS 3 Xrotation Yrotation Zrotation
						End Site
						{
							OFFSET 0.000000 6.719513 0.000000
						}
					}
				}
				JOINT HairE
				{
					OFFSET 5.915200 17.612701 -11.592200
					CHANNELS 3 Xrotation Yrotation Zrotation
					JOINT HairE1
					{
						OFFSET 0.289200 -7.171898 -1.284500
						CHANNELS 3 Xrotation Yrotation Zrotation
						End Site
						{
							OFFSET 0.000000 7.291756 0.000000
						}
					}
				}
				JOINT HairF
				{
					OFFSET -0.864800 17.612701 -11.592200
					CHANNELS 3 Xrotation Yrotation Zrotation
					JOINT HairF1
					{
						OFFSET 0.000000 -14.087097 -2.127501
						CHANNELS 3 Xrotation Yrotation Zrotation
						End Site
						{
							OFFSET 0.000000 14.246841 0.000000
						}
					}
				}
				JOINT HairG
				{
					OFFSET -8.087700 17.612701 -11.592200
					CHANNELS 3 Xrotation Yrotation Zrotation
					JOINT HairG1
					{
						OFFSET -0.293600 -6.081398 -0.910100
						CHANNELS 3 Xrotation Yrotation Zrotation
						End Site
						{
							OFFSET 0.000000 6.156120 0.000000
						}
					}
				}
			}
		}
	}
	JOINT Pouch
	{
		OFFSET 0.000000 4.394501 10.847300
		CHANNELS 3 Xrotation Yrotation Zrotation
		End Site
		{
			OFFSET 0.000000 21.880577 0.000000
		}
	}
	JOINT Bag
	{
		OFFSET -13.229000 4.813004 -0.593300
		CHANNELS 3 Xrotation Yrotation Zrotation
		End Site
		{
			OFFSET 0.000000 21.880577 0.000000
		}
	}
	JOINT OccupyGuyFacialAnim_Joint
	{
		OFFSET 1.000000 -70.206398 -1.655000
		CHANNELS 3 Xrotation Yrotation Zrotation
		End Site
		{
			OFFSET 0.000000 21.880577 0.000000
		}
	}
}
MOTION
Frames: 4
Frame Time: 0.033333
2.036804 62.675362 -1.452135 -13.745325 -52.676768 -6.012784 -0.000001 0.000003 0.000000 -26.018673 16.264016 24.449682 49.260397 -6.003478 -0.740072 -13.006613 2.161864 -13.694484 0.000000 0.000002 -0.000000 0.000003 -0.000002 0.000000 -26.005184 -1.413408 -18.880053 59.318007 5.788513 -7.987193 -24.437467 -3.680024 13.188535 -0.000000 0.000001 -0.000000 0.000001 0.000001 0.000000 11.811020 0.033854 -5.116530 15.836683 0.927125 -6.128716 15.833871 0.935906 -6.135620 5.337109 3.136665 -0.505955 -16.570061 43.082829 -1.995779 0.000000 0.000000 0.000001 0.000000 0.000000 0.000001 0.000000 0.000000 0.000001 0.000000 0.000000 -0.000000 0.000000 -0.000000 -0.000000 0.000000 0.000000 -0.000000 0.000000 -0.000000 -0.000000 0.000000 0.000000 0.000001 0.000000 0.000000 0.000001 -0.334526 -9.935022 10.043010 -36.323885 21.041240 -44.191580 0.000010 -131.638127 0.000010 -10.994161 -1.499441 -1.620840 -5.048496 1.209501 11.295055 24.062116 40.078440 -19.289014 -0.000000 0.000001 -0.000001 20.656394 7.832434 -91.717249 7.494376 5.616292 -106.338505 0.000001 0.000002 -0.000002 12.544881 7.180258 -99.585039 7.119895 5.712285 -102.545585 0.000004 -0.000001 0.000000 5.615249 8.251409 -95.250936 8.217606 5.352657 -113.894354 0.000003 -0.000000 -0.000001 -3.751095 8.841462 -93.523362 7.171245 5.700686 -103.061906 -0.000001 -0.000002 0.000001 0.000000 0.000001 -0.000002 8.250873 24.362305 1.575074 -51.015465 37.604303 59.587609 0.000105 114.521782 -0.000115 -13.814249 15.443386 4.192720 -10.913231 -2.224968 -19.417873 26.711007 -38.740522 23.987643 0.000002 -0.000001 -0.000001 19.657646 -6.558354 91.710828 5.955293 -4.472939 106.201956 -0.000001 -0.000001 0.000004 11.297747 -5.944114 99.158494 5.666971 -4.546611 102.536268 -0.000000 0.000001 -0.000002 4.282545 -6.985744 94.942703 6.543958 -4.258615 113.923246 0.000000 -0.000003 0.000000 -5.043516 -7.535638 93.285385 5.709827 -4.536902 103.077411 0.000000 0.000003 0.000001 0.000001 -0.000002 0.000000 -0.000002 0.000000 -0.000000 -0.000002 0.000000 -0.000002 -0.000002 0.000000 0.000001 -0.000002 0.000000 0.000001 -0.000002 0.000000 -0.000000 -0.000002 0.000000 -0.000002 -0.000002 0.000000 0.000001 -0.000002 0.000000 0.000001 -0.000002 0.000000 -0.000000 -0.000002 0.000000 -0.000002 -0.000001 0.000003 0.000000 -0.000001 0.000003 0.000000 -0.000001 0.000003 0.000000 
2.128624 63.018318 -1.126263 -13.475002 -53.212873 -5.456546 -0.000001 -0.000002 -0.000000 -24.938136 16.560980 23.578032 48.030208 -5.177332 -1.235566 -12.807734 2.110296 -13.530436 0.000000 -0.000003 0.000000 0.000001 -0.000004 0.000002 -25.608519 -1.220584 -19.427541 57.919478 6.271958 -7.995111 -23.732109 -3.638531 13.393221 0.000000 0.000002 0.000000 -0.000001 -0.000000 -0.000000 10.809314 0.141667 -5.118715 15.364700 0.977316 -6.146883 15.361970 0.986572 -6.152984 5.275922 3.173804 -0.512206 -15.533846 43.195493 -2.147075 0.000001 0.000000 0.000001 0.000001 0.000000 0.000001 0.000001 0.000000 0.000001 0.000001 0.000000 0.000000 0.000001 0.000000 0.000000 0.000001 0.000000 0.000000 0.000001 0.000000 0.000000 0.000001 0.000000 0.000001 0.000001 0.000000 0.000001 -0.324974 -9.673297 9.303758 -34.193221 20.453696 -45.435508 0.000008 -130.080324 0.000003 -10.610951 -1.569947 -2.072123 -4.573352 2.011111 11.108591 24.256599 39.513457 -20.174220 0.000001 0.000003 0.000003 20.682409 7.811718 -91.795167 7.489548 5.617699 -106.289273 0.000001 0.000000 -0.000002 12.576356 7.168600 -99.648724 7.117286 5.712855 -102.519241 0.000002 0.000000 -0.000001 5.617051 8.252284 -95.321341 8.217697 5.352594 -113.895440 0.000000 0.000001 0.000001 -3.750181 8.834294 -93.483044 7.172558 5.700368 -103.075266 0.000002 -0.000001 -0.000004 -0.000002 -0.000002 0.000002 8.763846 24.882787 1.641211 -51.149111 37.626672 58.253174 0.000037 114.197990 -0.000054 -15.908173 16.123297 5.830519 -10.781466 -2.432568 -19.492395 26.627721 -38.571741 23.974442 -0.000001 -0.000001 0.000003 19.622290 -6.607860 91.525484 5.952588 -4.473724 106.167374 -0.000002 -0.000001 0.000000 11.263892 -5.947199 99.180269 5.666994 -4.546605 102.536220 0.000001 0.000003 -0.000006 4.283825 -6.985838 94.958180 6.543156 -4.258978 113.912249 0.000003 -0.000003 0.000001 -5.042725 -7.526311 93.232772 5.705702 -4.537878 103.025064 -0.000001 -0.000003 0.000002 0.000000 0.000000 0.000001 -0.000001 -0.000001 0.000001 0.000001 0.000000 -0.000000 -0.000001 -0.000001 0.000002 -0.000001 -0.000001 0.000002 -0.000001 -0.000001 0.000001 0.000001 0.000000 -0.000000 -0.000001 -0.000001 0.000002 -0.000001 -0.000001 0.000002 -0.000001 -0.000001 0.000001 0.000001 0.000000 -0.000000 -0.000001 -0.000002 -0.000000 -0.000001 -0.000002 -0.000000 -0.000001 -0.000002 -0.000000 
2.191043 63.335968 -0.884052 -13.219794 -53.568798 -4.947265 0.000000 0.000003 -0.000000 -23.902524 16.654639 22.657742 46.790214 -4.339095 -1.541952 -12.506712 2.077610 -13.508444 0.000000 -0.000001 0.000000 0.000001 -0.000002 0.000001 -25.204330 -1.120288 -19.866599 56.634491 6.579429 -8.003063 -23.088239 -3.598861 13.583415 0.000000 0.000002 0.000000 -0.000001 -0.000001 0.000000 10.086998 0.340565 -5.000172 15.024994 1.079507 -6.112705 15.022310 1.089029 -6.117670 5.150919 3.133045 -0.526825 -14.266942 43.101448 -2.744827 -0.000000 -0.000000 0.000000 -0.000000 -0.000000 0.000000 -0.000000 -0.000000 0.000000 -0.000000 -0.000000 -0.000000 -0.000002 -0.000000 0.000001 -0.000000 -0.000000 -0.000000 -0.000002 -0.000000 0.000001 -0.000000 -0.000000 0.000000 -0.000000 -0.000000 0.000000 -0.310877 -9.223770 8.396298 -31.698252 19.824337 -47.059426 -0.000011 -128.986101 -0.000008 -10.047205 -1.893085 -2.302285 -4.067425 2.964187 10.881851 24.525401 38.848077 -21.187412 0.000001 0.000002 0.000000 20.754177 7.758644 -91.993093 7.486847 5.618484 -106.261604 -0.000000 0.000000 0.000002 12.596019 7.154700 -99.752522 7.115359 5.713275 -102.500116 0.000005 0.000001 -0.000003 5.625295 8.253449 -95.453034 8.219340 5.351885 -113.913000 -0.000004 0.000001 -0.000002 -3.736053 8.851190 -93.584575 7.175995 5.699593 -103.109731 -0.000001 0.000001 -0.000000 0.000002 0.000002 -0.000000 9.247850 25.367961 1.680410 -51.385350 37.745002 56.816498 0.000047 114.017680 -0.000061 -17.860076 16.258297 7.481261 -10.458392 -2.643134 -19.438934 26.536793 -38.412673 24.084842 0.000001 -0.000001 0.000001 19.609191 -6.595379 91.573883 5.948000 -4.475059 106.108491 -0.000001 -0.000001 0.000002 11.252391 -5.941670 99.250906 5.667396 -4.546518 102.541514 0.000003 0.000002 -0.000000 4.289039 -6.986313 95.021530 6.542350 -4.259336 113.901368 0.000001 0.000000 0.000001 -5.040218 -7.533411 93.274026 5.707274 -4.537486 103.045117 0.000001 0.000003 0.000003 0.000002 0.000004 0.000002 -0.000000 -0.000001 0.000001 -0.000000 0.000002 -0.000001 -0.000000 -0.000001 0.000001 -0.000000 -0.000001 0.000001 -0.000000 -0.000001 0.000001 -0.000000 0.000002 -0.000001 -0.000000 -0.000001 0.000001 -0.000000 -0.000001 0.000001 -0.000000 -0.000001 0.000001 -0.000000 0.000002 -0.000001 0.000000 0.000003 -0.000000 0.000000 0.000003 -0.000000 0.000000 0.000003 -0.000000 
2.198852 63.629028 -0.719117 -12.876268 -53.671364 -4.377832 -0.000000 0.000001 -0.000000 -22.980836 16.588462 21.717445 45.514185 -3.602709 -1.668830 -12.094908 2.051468 -13.590519 -0.000000 0.000000 0.000000 -0.000002 0.000000 -0.000001 -24.792301 -1.099803 -20.203906 55.479875 6.619274 -8.010242 -22.557168 -3.573745 13.787200 0.000000 -0.000000 -0.000000 -0.000005 -0.000000 -0.000000 9.503795 0.502140 -4.732620 14.749701 1.174136 -6.015246 14.747149 1.182995 -6.019747 5.019155 3.075243 -0.599809 -12.828238 42.896481 -3.533632 0.000000 0.000000 0.000001 0.000000 0.000000 0.000001 0.000000 0.000000 0.000001 0.000000 0.000000 0.000000 0.000002 0.000000 0.000000 0.000000 0.000000 0.000000 0.000002 0.000000 0.000000 0.000000 0.000000 0.000001 0.000000 0.000000 0.000001 -0.286262 -8.576873 7.338653 -28.976603 19.172980 -48.901095 0.000016 -128.105840 0.000016 -9.073898 -2.478775 -2.188948 -3.830336 3.503909 10.761542 24.744097 38.452018 -21.766461 -0.000001 0.000003 -0.000001 20.811638 7.713193 -92.161600 7.488107 5.618123 -106.274554 -0.000002 0.000003 0.000002 12.606802 7.144963 -99.830168 7.119994 5.712266 -102.546650 0.000006 0.000000 -0.000005 5.630029 8.254289 -95.539334 8.222644 5.350419 -113.948415 0.000003 0.000004 -0.000001 -3.714606 8.870561 -93.703331 7.180933 5.698431 -103.159523 0.000001 -0.000001 -0.000001 0.000002 -0.000001 -0.000004 9.683940 25.781744 1.747500 -51.517453 38.152747 55.404845 0.000009 113.644895 -0.000016 -19.690044 16.098735 9.131411 -10.028373 -2.854727 -19.316424 26.429569 -38.252625 24.247723 0.000000 0.000001 0.000003 19.607446 -6.555585 91.725363 5.948372 -4.474935 106.113266 -0.000001 -0.000003 -0.000000 11.245951 -5.933646 99.338155 5.666324 -4.546751 102.528052 0.000001 0.000002 -0.000004 4.295898 -6.986925 95.105077 6.541300 -4.259802 113.887100 0.000003 -0.000001 0.000001 -5.035136 -7.546502 93.350115 5.708149 -4.537306 103.056100 -0.000003 0.000001 0.000001 0.000002 0.000001 0.000001 -0.000003 0.000001 0.000001 -0.000002 0.000003 -0.000000 -0.000003 0.000001 0.000001 -0.000003 0.000001 0.000001 -0.000003 0.000001 0.000001 -0.000002 0.000003 -0.000000 -0.000003 0.000001 0.000001 -0.000003 0.000001 0.000001 -0.000003 0.000001 0.000001 -0.000002 0.000003 -0.000000 -0.000000 0.000001 -0.000000 -0.000000 0.000001 -0.000000 -0.000000 0.000001 -0.000000 
